<?xml version="1.0" standalone="no"?>
<!DOCTYPE svg PUBLIC "-//W3C//DTD SVG 20010904//EN"
 "http://www.w3.org/TR/2001/REC-SVG-20010904/DTD/svg10.dtd">
<svg version="1.0" xmlns="http://www.w3.org/2000/svg"
 width="1200.000000pt" height="1200.000000pt" viewBox="0 0 1200.000000 1200.000000"
 preserveAspectRatio="xMidYMid meet">

<g transform="translate(0.000000,1200.000000) scale(0.100000,-0.100000)"
fill="#000000" stroke="none">
<path d="M4920 6770 l0 -890 1080 0 1080 0 0 890 0 890 -1080 0 -1080 0 0
-890z m2070 575 l0 -215 -990 0 -990 0 0 215 0 215 990 0 990 0 0 -215z m0
-840 l0 -535 -990 0 -990 0 0 535 0 535 990 0 990 0 0 -535z"/>
<path d="M5130 7345 l0 -45 45 0 45 0 0 45 0 45 -45 0 -45 0 0 -45z"/>
<path d="M5310 7345 l0 -45 50 0 50 0 0 45 0 45 -50 0 -50 0 0 -45z"/>
<path d="M5500 7345 l0 -45 635 0 635 0 0 45 0 45 -635 0 -635 0 0 -45z"/>
<path d="M5250 6765 l0 -45 300 0 300 0 0 45 0 45 -300 0 -300 0 0 -45z"/>
<path d="M6130 6765 l0 -45 300 0 300 0 0 45 0 45 -300 0 -300 0 0 -45z"/>
<path d="M5250 6525 l0 -45 300 0 300 0 0 45 0 45 -300 0 -300 0 0 -45z"/>
<path d="M6130 6525 l0 -45 300 0 300 0 0 45 0 45 -300 0 -300 0 0 -45z"/>
<path d="M6130 6290 l0 -50 300 0 300 0 0 50 0 50 -300 0 -300 0 0 -50z"/>
<path d="M5250 6285 l0 -45 300 0 300 0 0 45 0 45 -300 0 -300 0 0 -45z"/>
<path d="M7400 5805 l0 -95 1425 0 1425 0 0 95 0 95 -1425 0 -1425 0 0 -95z"/>
<path d="M1750 5785 l0 -95 1425 0 1425 0 0 95 0 95 -1425 0 -1425 0 0 -95z"/>
<path d="M3707 5170 c-363 -92 -410 -632 -69 -793 61 -29 76 -32 162 -32 86 0
101 3 162 32 311 147 313 619 2 765 -71 33 -186 46 -257 28z m188 -149 c47
-21 108 -85 131 -138 12 -26 17 -65 17 -123 0 -98 -14 -139 -71 -202 -119
-133 -316 -94 -393 77 -48 105 -24 252 54 334 66 69 177 91 262 52z"/>
<path d="M7690 5165 c-113 -32 -199 -107 -252 -221 -56 -119 -48 -289 19 -403
48 -83 112 -134 223 -178 23 -9 20 -11 -40 -34 -79 -30 -104 -63 -80 -106 24
-42 43 -49 92 -34 88 26 99 25 184 -18 106 -54 181 -63 280 -33 90 28 144 71
144 116 0 37 -25 66 -57 66 -12 0 -44 -16 -73 -35 -40 -27 -62 -35 -96 -35
-31 0 -66 11 -114 35 -38 19 -77 35 -85 35 -33 0 -2 20 66 41 95 30 165 81
216 157 53 79 73 145 73 242 0 135 -42 233 -136 319 -93 85 -241 120 -364 86z
m181 -136 c51 -16 103 -60 137 -117 25 -43 27 -56 27 -147 0 -91 -2 -104 -27
-147 -64 -108 -173 -151 -292 -116 -60 18 -131 92 -150 159 -35 118 -12 234
62 308 67 66 151 87 243 60z"/>
<path d="M1966 5149 l-26 -20 0 -368 0 -368 23 -21 c29 -27 61 -28 87 -2 18
18 20 33 20 149 l0 129 133 4 c144 4 169 11 226 69 126 125 96 341 -58 421
-52 27 -57 28 -216 28 -149 0 -164 -2 -189 -21z m361 -131 c46 -51 57 -122 28
-178 -27 -53 -49 -60 -172 -60 l-113 0 0 130 0 130 118 0 c110 0 120 -2 139
-22z"/>
<path d="M2672 5147 c-22 -23 -22 -27 -22 -389 l0 -367 26 -20 c34 -26 68 -27
94 -1 18 18 20 33 20 150 l0 130 131 0 c163 0 198 -15 199 -87 1 -145 95 -251
175 -199 34 22 32 60 -3 101 -23 25 -30 46 -35 94 -7 67 -23 105 -56 135 l-21
19 35 38 c56 63 70 96 69 174 0 104 -47 179 -139 221 -47 22 -61 24 -251 24
-197 0 -201 0 -222 -23z m425 -129 c32 -35 43 -63 43 -105 0 -47 -32 -118 -58
-132 -12 -6 -78 -11 -156 -11 l-136 0 0 135 0 135 143 0 c136 0 145 -1 164
-22z"/>
<path d="M4669 5151 c-24 -19 -24 -19 -29 -309 -5 -272 -6 -291 -25 -312 -29
-32 -69 -50 -110 -50 -40 0 -66 11 -108 46 -35 29 -70 31 -97 4 -34 -34 -26
-72 24 -118 132 -121 353 -78 436 85 25 47 25 52 28 335 l3 288 -25 25 c-30
30 -65 32 -97 6z"/>
<path d="M4992 5147 c-22 -23 -22 -27 -22 -388 l0 -366 23 -21 c22 -21 31 -22
245 -22 209 0 223 1 242 20 28 28 25 64 -6 89 -25 19 -40 21 -195 21 l-169 0
0 110 0 110 150 0 c137 0 152 2 170 20 28 28 25 64 -6 89 -24 19 -40 21 -170
21 l-144 0 0 105 0 105 175 0 c162 0 177 2 195 20 11 11 20 31 20 45 0 14 -9
34 -20 45 -19 19 -33 20 -243 20 -221 0 -224 0 -245 -23z"/>
<path d="M5922 5160 c-124 -26 -223 -103 -279 -218 -37 -74 -38 -78 -38 -186
1 -137 23 -200 96 -281 119 -129 327 -170 492 -97 54 24 69 59 46 101 -19 33
-56 38 -127 16 -69 -22 -171 -16 -227 13 -85 43 -126 113 -133 223 -6 101 16
167 73 224 70 70 187 94 290 59 64 -21 106 -16 124 18 12 20 13 34 5 55 -20
57 -202 98 -322 73z"/>
<path d="M6346 5149 c-33 -26 -33 -53 -1 -84 23 -23 31 -25 130 -25 l105 0 0
-324 0 -325 26 -20 c35 -28 69 -26 99 4 l25 24 0 321 0 320 103 0 c121 0 147
11 147 65 0 63 -9 65 -326 65 -269 0 -282 -1 -308 -21z"/>
<path d="M8356 5149 l-27 -21 3 -277 3 -276 27 -50 c76 -143 233 -206 395
-157 90 28 142 73 185 160 l33 67 3 262 4 262 -26 26 c-29 29 -52 32 -84 9
-22 -15 -22 -19 -22 -252 0 -132 -5 -253 -10 -274 -31 -110 -167 -170 -268
-119 -94 48 -102 77 -102 375 l0 245 -26 20 c-34 27 -54 26 -88 0z"/>
<path d="M9186 5149 l-26 -20 0 -368 0 -368 23 -21 c29 -28 57 -28 91 -1 l26
20 0 369 0 369 -26 20 c-15 12 -34 21 -44 21 -10 0 -29 -9 -44 -21z"/>
<path d="M9505 5145 c-30 -29 -31 -45 -6 -76 19 -23 25 -24 205 -29 l187 -5
-225 -291 c-124 -160 -228 -303 -231 -317 -5 -20 -1 -32 19 -51 l25 -26 286 0
c272 0 286 1 305 20 24 24 26 72 3 91 -12 11 -68 15 -220 19 l-204 5 202 260
c296 381 280 354 234 400 l-24 25 -266 0 -266 0 -24 -25z"/>
</g>
</svg>
